<svg id="icon_comment" data-name="icon/comment" xmlns="http://www.w3.org/2000/svg" width="16" height="16" viewBox="0 0 16 16">
  <g id="Comment_2" fill="none" stroke-miterlimit="10">
    <path d="M15,0H1A1.057,1.057,0,0,0,0,1.07V12.048A.956.956,0,0,0,1,13H2v2.376c0,.564.4.659.9.415L8.28,13H15a.956.956,0,0,0,1-.952V1.07A1.057,1.057,0,0,0,15,0Z" stroke="none"/>
    <path d="M 1.030744552612305 1 C 1.016858100891113 1.015020370483398 1 1.043940544128418 1 1.069999694824219 L 1.000060081481934 12 L 3 12 L 3 14.61349964141846 L 8.035970687866211 12 L 15 12 L 15 1.069999694824219 C 15 1.043940544128418 14.98314189910889 1.015020370483398 14.9692554473877 1 L 1.030744552612305 1 M 1 0 L 15 0 C 15.55000019073486 0 16 0.508000373840332 16 1.069999694824219 L 16 12.04800033569336 C 16 12.60999965667725 15.55000019073486 13 15 13 L 8.280000686645508 13 L 2.902000427246094 15.79100036621094 C 2.403994560241699 16.03500175476074 2 15.93999862670898 2 15.37599945068359 L 2 13 L 1 13 C 0.4499998092651367 13 0 12.60999965667725 0 12.04800033569336 L 0 1.069999694824219 C 0 0.508000373840332 0.4499998092651367 0 1 0 Z" stroke="none" fill="#889099"/>
  </g>
</svg>
