<svg id="logo-footer" xmlns="http://www.w3.org/2000/svg" xmlns:xlink="http://www.w3.org/1999/xlink" width="239" height="33" viewBox="0 0 239 33">
  <defs>
    <linearGradient id="linear-gradient" x1="0.5" y1="0.999" x2="0.5" y2="0.088" gradientUnits="objectBoundingBox">
      <stop offset="0" stop-color="#4cb649"/>
      <stop offset="1" stop-color="#78b280"/>
    </linearGradient>
    <radialGradient id="radial-gradient" cx="0.511" cy="0.552" r="0.469" gradientUnits="objectBoundingBox">
      <stop offset="0"/>
      <stop offset="0.19" stop-color="#030303"/>
      <stop offset="0.324" stop-color="#0c0c0c"/>
      <stop offset="0.44" stop-color="#1c1c1c"/>
      <stop offset="0.546" stop-color="#323232"/>
      <stop offset="0.646" stop-color="#4e4e4e"/>
      <stop offset="0.74" stop-color="#717171"/>
      <stop offset="0.831" stop-color="#9a9a9a"/>
      <stop offset="0.916" stop-color="#c9c9c9"/>
      <stop offset="0.998" stop-color="#fefefe"/>
      <stop offset="1" stop-color="#fff"/>
    </radialGradient>
    <linearGradient id="linear-gradient-2" x1="-0.488" y1="-0.665" x2="0.565" y2="0.577" gradientUnits="objectBoundingBox">
      <stop offset="0" stop-color="#23ff16"/>
      <stop offset="1" stop-color="#189a33"/>
    </linearGradient>
    <linearGradient id="linear-gradient-3" x1="1.743" y1="-1.16" x2="0.243" y2="0.843" xlink:href="#linear-gradient-2"/>
  </defs>
  <g id="logo_pia-black-no-tagline" data-name="logo/pia-black-no-tagline">
    <g id="Group">
      <path id="Shape" d="M25.362,11.29H24.1V10.16a10.217,10.217,0,0,0-20.433,0v1.131H2.4A2.393,2.393,0,0,0,0,13.678v9.327a2.342,2.342,0,0,0,.283,1.4,1.515,1.515,0,0,0,1.308.447H3.622l.31,4.912c0,.012,0,.031,0,.055a1.478,1.478,0,0,0,.18.716,1.132,1.132,0,0,0,1.054.543H10.33l2.682-2.845h2l2.593,2.933h4.631a1.944,1.944,0,0,0,1.08-.193,1.667,1.667,0,0,0,.6-1.278c.133-.99.164-3.7.225-4.843h2.03a1.674,1.674,0,0,0,1.3-.347,1.947,1.947,0,0,0,.292-1.324v-9.5A2.4,2.4,0,0,0,25.362,11.29Z" transform="translate(0.891 0.036)" fill="#349334"/>
      <path id="Shape-2" data-name="Shape" d="M27.123,22.865c0,.611-.058.953-.21,1.111s-.448.244-1.06.242H23.519l-.008.151c-.056,1.078-.094,3.96-.23,4.968-.087.651-.257.927-.455,1.053a1.69,1.69,0,0,1-.906.141H17.434L14.84,27.6H12.554L9.872,30.441H4.846a.808.808,0,0,1-.777-.384,1.161,1.161,0,0,1-.137-.556c0-.031,0-.044,0-.044v-.013L3.6,24.217H1.271c-.607,0-.9-.113-1.051-.32A2.1,2.1,0,0,1,0,22.686V13.359a2.078,2.078,0,0,1,2.081-2.07H3.665V9.841a9.9,9.9,0,0,1,19.793,0v1.449h1.585a2.076,2.076,0,0,1,2.079,2.07v9.5Z" transform="translate(1.211 0.354)" fill="#4cb649"/>
      <path id="Rectangle-path" d="M0,0H19.227V.628H0Z" transform="translate(5.181 24.314)" fill="#118011"/>
      <path id="Shape-3" data-name="Shape" d="M0,12.042V0H.32V12.042Z" transform="translate(4.861 12.498)" fill="#118011"/>
      <path id="Shape-4" data-name="Shape" d="M0,12.042V0H.321V12.042Z" transform="translate(24.409 12.498)" fill="#118011"/>
      <ellipse id="Oval" cx="6.885" cy="1.261" rx="6.885" ry="1.261" transform="translate(7.742 13.835)" fill="url(#linear-gradient)"/>
      <path id="Shape-5" data-name="Shape" d="M12.561,8.121V6.28A6.28,6.28,0,0,0,0,6.28V8.121Z" transform="translate(8.495 3.748)" fill="#fff"/>
      <path id="Rectangle-path-2" data-name="Rectangle-path" d="M0,0H5.6V.656H0Z" transform="translate(12.127 9.952)" fill="url(#radial-gradient)"/>
      <circle id="Oval-2" data-name="Oval" cx="1.16" cy="1.16" r="1.16" transform="translate(11.522 6.017)"/>
      <circle id="Oval-3" data-name="Oval" cx="1.16" cy="1.16" r="1.16" transform="translate(15.658 6.017)"/>
      <rect id="Rectangle-path-3" data-name="Rectangle-path" width="4.214" height="3.148" transform="translate(12.52 18.867)" fill="#fff"/>
      <path id="Shape-6" data-name="Shape" d="M.5,1.628A1.549,1.549,0,0,1,1.972.481,1.551,1.551,0,0,1,3.446,1.628h.5A2.038,2.038,0,0,0,1.972,0,2.037,2.037,0,0,0,0,1.628Z" transform="translate(12.663 16.919)" fill="#fff"/>
      <path id="Shape-7" data-name="Shape" d="M2.436.36c.113,0,.216,0,.315-.009V0a4.217,4.217,0,0,1-.635.039H.086C.054.607.032,1.561,0,2.5H.33C.358,1.669.379.863.405.36Z" transform="translate(24.947 24.85)" fill="#118011"/>
      <path id="Shape-8" data-name="Shape" d="M2.419.175V0c-.1,0-.2.008-.315.009H.075C.048.512.026,1.319,0,2.147H.469A1.961,1.961,0,0,0,2.419.175Z" transform="translate(25.28 25.202)" fill="url(#linear-gradient-2)"/>
      <path id="Shape-9" data-name="Shape" d="M2.824.1H.792A2.568,2.568,0,0,1,0,0V.409A3.527,3.527,0,0,0,.421.43H2.453l.135,2.128H2.98Z" transform="translate(1.69 24.791)" fill="#118011"/>
      <path id="Shape-10" data-name="Shape" d="M.421.021A3.743,3.743,0,0,1,0,0V.177A1.961,1.961,0,0,0,1.948,2.149h.639L2.452.021Z" transform="translate(1.69 25.201)" fill="url(#linear-gradient-3)"/>
    </g>
    <g id="Group_7" data-name="Group 7" transform="translate(33 5)">
      <path id="Shape-11" data-name="Shape" d="M0,15.018V.2H2.651l.1,1.049A3.363,3.363,0,0,1,5.462,0,3.625,3.625,0,0,1,8.538,1.464,6.6,6.6,0,0,1,9.636,5.5v.148h0A6.417,6.417,0,0,1,8.511,9.612,3.6,3.6,0,0,1,5.48,11.1,3.333,3.333,0,0,1,2.858,9.972v5.046Z" transform="translate(0.136 6.124)" fill="#22252e"/>
      <path id="Shape-12" data-name="Shape" d="M6.015,2.88A7.811,7.811,0,0,0,4.986,2.8,2.1,2.1,0,0,0,2.859,3.9v7H0V.2H2.7L2.78,1.474A2.65,2.65,0,0,1,5.164,0a3,3,0,0,1,.89.128Z" transform="translate(11.846 6.124)" fill="#22252e"/>
      <path id="Shape-13" data-name="Shape" d="M.168,14.948V4.244H3.038v10.7ZM.44,2.543A1.4,1.4,0,0,1,0,1.474,1.407,1.407,0,0,1,.43.416,1.616,1.616,0,0,1,1.6,0,1.619,1.619,0,0,1,2.769.416,1.4,1.4,0,0,1,3.2,1.474a1.4,1.4,0,0,1-.44,1.068A1.626,1.626,0,0,1,1.6,2.958,1.622,1.622,0,0,1,.44,2.543Z" transform="translate(19.521 2.079)" fill="#22252e"/>
      <path id="Shape-14" data-name="Shape" d="M4.976,7.213,6.964,0H9.952L6.341,10.7H3.611L0,0H2.988Z" transform="translate(24.247 6.323)" fill="#22252e"/>
      <path id="Shape-15" data-name="Shape" d="M1.034,10.191A2.926,2.926,0,0,1,0,7.9,3.027,3.027,0,0,1,1.261,5.284a6.226,6.226,0,0,1,3.646-.92H6.223V3.75a1.77,1.77,0,0,0-.381-1.187,1.5,1.5,0,0,0-1.2-.445,1.708,1.708,0,0,0-1.133.346,1.178,1.178,0,0,0-.41.95H.237A2.875,2.875,0,0,1,.811,1.692,3.785,3.785,0,0,1,2.434.45,5.9,5.9,0,0,1,4.788,0,4.674,4.674,0,0,1,7.929.994,3.479,3.479,0,0,1,9.091,3.788v4.64a5.123,5.123,0,0,0,.426,2.3V10.9H6.628v0a3.18,3.18,0,0,1-.286-.96,3.462,3.462,0,0,1-2.7,1.157A3.8,3.8,0,0,1,1.034,10.191Z" transform="translate(35.185 6.123)" fill="#22252e"/>
      <path id="Shape-16" data-name="Shape" d="M4.423,0V2.631H6.254v2.1H4.423V10.07a1.279,1.279,0,0,0,.227.851,1.141,1.141,0,0,0,.871.257,4.6,4.6,0,0,0,.84-.069v2.167a5.9,5.9,0,0,1-1.731.257q-3.008,0-3.067-3.037V4.729H0v-2.1H1.563V0Z" transform="translate(45.777 3.691)" fill="#22252e"/>
      <path id="Shape-17" data-name="Shape" d="M1.479,9.655A5.132,5.132,0,0,1,0,5.807V5.53A6.473,6.473,0,0,1,.623,2.646,4.581,4.581,0,0,1,2.389.687,4.955,4.955,0,0,1,4.995,0,4.448,4.448,0,0,1,8.454,1.384,5.63,5.63,0,0,1,9.715,5.312V6.479H2.9a2.656,2.656,0,0,0,.835,1.682A2.528,2.528,0,0,0,5.5,8.795,3.087,3.087,0,0,0,8.082,7.6l1.4,1.572a4.29,4.29,0,0,1-1.741,1.42,5.711,5.711,0,0,1-2.435.509A5.253,5.253,0,0,1,1.479,9.655Z" transform="translate(53.541 6.125)" fill="#22252e"/>
      <path id="Shape-18" data-name="Shape" d="M.208,14.593V3.888H1.395v10.7ZM.218,1.357A.778.778,0,0,1,0,.8.8.8,0,0,1,.218.231.776.776,0,0,1,.811,0a.793.793,0,0,1,.6.231A.784.784,0,0,1,1.633.8a.765.765,0,0,1-.222.561.8.8,0,0,1-.6.227A.783.783,0,0,1,.218,1.357Z" transform="translate(65.558 2.435)" fill="#22252e"/>
      <path id="Shape-19" data-name="Shape" d="M1.128.2l.04,1.831A4.253,4.253,0,0,1,2.672.52,3.9,3.9,0,0,1,4.66,0,3.212,3.212,0,0,1,7.222.97a4.373,4.373,0,0,1,.851,2.908V10.9H6.9V3.868a3.269,3.269,0,0,0-.608-2.137,2.383,2.383,0,0,0-1.914-.7,3,3,0,0,0-1.944.687A4.029,4.029,0,0,0,1.178,3.571V10.9H0V.2Z" transform="translate(70.472 6.124)" fill="#22252e"/>
      <path id="Shape-20" data-name="Shape" d="M3.154,0V2.74H5.37v.97H3.154v7.141a2.232,2.232,0,0,0,.322,1.327,1.246,1.246,0,0,0,1.074.435,7.354,7.354,0,0,0,.96-.1l.05.961a3.878,3.878,0,0,1-1.266.166,2.111,2.111,0,0,1-1.77-.707,3.33,3.33,0,0,1-.554-2.082V3.71H0V2.74H1.969V0Z" transform="translate(80.591 3.583)" fill="#22252e"/>
      <path id="Shape-21" data-name="Shape" d="M2.329,10.428A4.583,4.583,0,0,1,.613,8.554,5.851,5.851,0,0,1,0,5.857V5.431a6.3,6.3,0,0,1,.6-2.78A4.774,4.774,0,0,1,2.265.707,4.109,4.109,0,0,1,4.579,0,3.866,3.866,0,0,1,7.672,1.331,5.4,5.4,0,0,1,8.814,4.967v.662H1.176v.228A4.484,4.484,0,0,0,2.22,8.889,3.32,3.32,0,0,0,4.846,10.1a3.867,3.867,0,0,0,1.678-.347,3.71,3.71,0,0,0,1.32-1.107l.742.563A4.324,4.324,0,0,1,4.8,11.1,4.653,4.653,0,0,1,2.329,10.428Z" transform="translate(88.067 6.124)" fill="#22252e"/>
      <path id="Shape-22" data-name="Shape" d="M4.948,1.208a4.47,4.47,0,0,0-.8-.069,2.9,2.9,0,0,0-1.875.618,3.385,3.385,0,0,0-1.093,1.8V10.9H0V.2H1.157l.019,1.7A3.149,3.149,0,0,1,4.194,0a1.952,1.952,0,0,1,.781.128Z" transform="translate(99.488 6.124)" fill="#22252e"/>
      <path id="Shape-23" data-name="Shape" d="M1.128.2l.04,1.831A4.253,4.253,0,0,1,2.672.52,3.9,3.9,0,0,1,4.66,0,3.212,3.212,0,0,1,7.222.97a4.373,4.373,0,0,1,.851,2.908V10.9H6.9V3.868a3.269,3.269,0,0,0-.608-2.137,2.383,2.383,0,0,0-1.914-.7,3,3,0,0,0-1.944.687A4.029,4.029,0,0,0,1.178,3.571V10.9H0V.2Z" transform="translate(106.61 6.124)" fill="#22252e"/>
      <path id="Shape-24" data-name="Shape" d="M2.329,10.428A4.583,4.583,0,0,1,.613,8.554,5.851,5.851,0,0,1,0,5.857V5.431a6.3,6.3,0,0,1,.6-2.78A4.774,4.774,0,0,1,2.265.707,4.109,4.109,0,0,1,4.579,0,3.866,3.866,0,0,1,7.672,1.331,5.4,5.4,0,0,1,8.814,4.967v.662H1.176v.228A4.484,4.484,0,0,0,2.22,8.889,3.32,3.32,0,0,0,4.846,10.1a3.867,3.867,0,0,0,1.678-.347,3.71,3.71,0,0,0,1.32-1.107l.742.563A4.322,4.322,0,0,1,4.8,11.1,4.653,4.653,0,0,1,2.329,10.428Z" transform="translate(117.391 6.124)" fill="#22252e"/>
      <path id="Shape-25" data-name="Shape" d="M3.154,0V2.74H5.37v.97H3.154v7.141a2.232,2.232,0,0,0,.322,1.327,1.246,1.246,0,0,0,1.074.435,7.354,7.354,0,0,0,.96-.1l.05.961a3.878,3.878,0,0,1-1.266.166,2.111,2.111,0,0,1-1.77-.707,3.33,3.33,0,0,1-.554-2.082V3.71H0V2.74H1.969V0Z" transform="translate(127.5 3.583)" fill="#22252e"/>
      <path id="Shape-26" data-name="Shape" d="M.955,10.238A2.805,2.805,0,0,1,0,8.061,2.864,2.864,0,0,1,1.3,5.588a6.252,6.252,0,0,1,3.626-.911H7.074V3.461a2.347,2.347,0,0,0-.707-1.805A2.925,2.925,0,0,0,4.3,1a3.223,3.223,0,0,0-2.048.634,1.879,1.879,0,0,0-.812,1.524L.257,3.146A2.749,2.749,0,0,1,1.444.935,4.567,4.567,0,0,1,4.363,0,4.166,4.166,0,0,1,7.187.9a3.215,3.215,0,0,1,1.063,2.5V8.459a6.283,6.283,0,0,0,.327,2.326V10.9H7.311v0a5.6,5.6,0,0,1-.228-1.493A4.124,4.124,0,0,1,5.5,10.658a4.859,4.859,0,0,1-2.042.44A3.587,3.587,0,0,1,.955,10.238Z" transform="translate(135.073 6.127)" fill="#22252e"/>
      <path id="Shape-27" data-name="Shape" d="M4.57,10.1a3.125,3.125,0,0,0,2.073-.7A2.456,2.456,0,0,0,7.548,7.6H8.686a3.351,3.351,0,0,1-.613,1.786,3.844,3.844,0,0,1-1.5,1.261,4.523,4.523,0,0,1-2,.455A4.133,4.133,0,0,1,1.232,9.635,5.918,5.918,0,0,1,0,5.7V5.341a6.692,6.692,0,0,1,.554-2.8A4.264,4.264,0,0,1,2.142.663,4.38,4.38,0,0,1,4.56,0a4.13,4.13,0,0,1,2.9,1.048,3.823,3.823,0,0,1,1.221,2.76H7.547a2.912,2.912,0,0,0-.906-2.028A2.933,2.933,0,0,0,4.559,1.01,2.953,2.953,0,0,0,2.071,2.167a5.242,5.242,0,0,0-.885,3.245v.346a5.126,5.126,0,0,0,.885,3.2A2.977,2.977,0,0,0,4.57,10.1Z" transform="translate(146.171 6.125)" fill="#22252e"/>
      <path id="Shape-28" data-name="Shape" d="M4.57,10.1a3.125,3.125,0,0,0,2.073-.7A2.456,2.456,0,0,0,7.548,7.6H8.686a3.351,3.351,0,0,1-.613,1.786,3.844,3.844,0,0,1-1.5,1.261,4.523,4.523,0,0,1-2,.455A4.133,4.133,0,0,1,1.232,9.635,5.918,5.918,0,0,1,0,5.7V5.341a6.692,6.692,0,0,1,.554-2.8A4.264,4.264,0,0,1,2.142.663,4.38,4.38,0,0,1,4.56,0a4.13,4.13,0,0,1,2.9,1.048,3.823,3.823,0,0,1,1.221,2.76H7.547a2.912,2.912,0,0,0-.906-2.028A2.933,2.933,0,0,0,4.559,1.01,2.953,2.953,0,0,0,2.071,2.167a5.242,5.242,0,0,0-.885,3.245v.346a5.126,5.126,0,0,0,.885,3.2A2.977,2.977,0,0,0,4.57,10.1Z" transform="translate(156.911 6.125)" fill="#22252e"/>
      <path id="Shape-29" data-name="Shape" d="M2.329,10.428A4.583,4.583,0,0,1,.613,8.554,5.851,5.851,0,0,1,0,5.857V5.431a6.3,6.3,0,0,1,.6-2.78A4.774,4.774,0,0,1,2.265.707,4.109,4.109,0,0,1,4.579,0,3.866,3.866,0,0,1,7.672,1.331,5.4,5.4,0,0,1,8.814,4.967v.662H1.176v.228A4.484,4.484,0,0,0,2.22,8.889,3.32,3.32,0,0,0,4.846,10.1a3.867,3.867,0,0,0,1.678-.347,3.71,3.71,0,0,0,1.32-1.107l.742.563A4.322,4.322,0,0,1,4.8,11.1,4.653,4.653,0,0,1,2.329,10.428Z" transform="translate(167.613 6.124)" fill="#22252e"/>
      <path id="Shape-30" data-name="Shape" d="M6.953,8.181a1.688,1.688,0,0,0-.707-1.415,5.448,5.448,0,0,0-2.132-.836A9.59,9.59,0,0,1,1.9,5.238,2.944,2.944,0,0,1,.736,4.284,2.384,2.384,0,0,1,.355,2.919,2.548,2.548,0,0,1,1.413.826,4.274,4.274,0,0,1,4.124,0,4.407,4.407,0,0,1,7,.885,2.844,2.844,0,0,1,8.081,3.2H6.894a1.919,1.919,0,0,0-.786-1.563A3.093,3.093,0,0,0,4.124,1.01a3.09,3.09,0,0,0-1.874.52A1.6,1.6,0,0,0,1.542,2.88a1.46,1.46,0,0,0,.589,1.242,6.223,6.223,0,0,0,2.146.806,10.1,10.1,0,0,1,2.335.781,3.025,3.025,0,0,1,1.152,1,2.559,2.559,0,0,1,.376,1.415A2.565,2.565,0,0,1,7.047,10.29a4.667,4.667,0,0,1-2.854.811,4.8,4.8,0,0,1-3.032-.9A2.785,2.785,0,0,1,0,7.906H1.187a2.059,2.059,0,0,0,.875,1.618,3.58,3.58,0,0,0,2.132.578,3.369,3.369,0,0,0,2-.544A1.642,1.642,0,0,0,6.953,8.181Z" transform="translate(178.494 6.125)" fill="#22252e"/>
      <path id="Shape-31" data-name="Shape" d="M6.953,8.181a1.688,1.688,0,0,0-.707-1.415,5.448,5.448,0,0,0-2.132-.836A9.59,9.59,0,0,1,1.9,5.238,2.944,2.944,0,0,1,.736,4.284,2.384,2.384,0,0,1,.355,2.919,2.548,2.548,0,0,1,1.413.826,4.274,4.274,0,0,1,4.124,0,4.407,4.407,0,0,1,7,.885,2.844,2.844,0,0,1,8.081,3.2H6.894a1.919,1.919,0,0,0-.786-1.563A3.093,3.093,0,0,0,4.124,1.01a3.09,3.09,0,0,0-1.874.52A1.6,1.6,0,0,0,1.542,2.88a1.46,1.46,0,0,0,.589,1.242,6.223,6.223,0,0,0,2.146.806,10.1,10.1,0,0,1,2.335.781,3.025,3.025,0,0,1,1.152,1,2.559,2.559,0,0,1,.376,1.415A2.565,2.565,0,0,1,7.047,10.29a4.667,4.667,0,0,1-2.854.811,4.8,4.8,0,0,1-3.032-.9A2.785,2.785,0,0,1,0,7.906H1.187a2.059,2.059,0,0,0,.875,1.618,3.58,3.58,0,0,0,2.132.578,3.369,3.369,0,0,0,2-.544A1.64,1.64,0,0,0,6.953,8.181Z" transform="translate(189.056 6.125)" fill="#22252e"/>
      <path id="Shape-32" data-name="Shape" d="M0,3.138V0H1.039a1.233,1.233,0,0,1,.815.241.867.867,0,0,1,.285.7.844.844,0,0,1-.158.511.943.943,0,0,1-.441.326l.738,1.332v.025H1.834l-.68-1.269H.416v1.27Z" transform="translate(201.682 1.702)" fill="#22252e"/>
      <path id="Shape-33" data-name="Shape" d="M0,3.318A3.317,3.317,0,1,1,3.317,6.636,3.322,3.322,0,0,1,0,3.318Z" transform="translate(199.361)" fill="#22252e"/>
    </g>
  </g>
</svg>
